# xmcd CD database file
#
# Track frame offsets:
#	150
#	18217
#	31557
#	49652
#	66335
#	87487
#	105812
#	122757
#	136755
#	149662
#	166467
#	185990
#	199252
#	214327
#	227145
#	243160
#	265840
#	278310
#	296600
#
# Disc length: 4167 seconds
#
# Revision: 0
# Processed by: cddbd v1.5.2PL0 Copyright (c) Steve Scherf et al.
# Submitted via: CDex 1.70beta2
#
DISCID=12104513
DTITLE=Lightnin' Hopkins - Blue Lightnin'/Talkin' Some Sense
DYEAR=1990
DGENRE=Blues
TTITLE0=Found My Baby Crying
TTITLE1=Move On Out (Part 1)
TTITLE2=Back Door Friend
TTITLE3=Fishing Clothes
TTITLE4=Morning Blues
TTITLE5=Gamblers Blues
TTITLE6=Wig Wearing Woman
TTITLE7=Move On Out (Part 2)
TTITLE8=Long Way From Home
TTITLE9=I'm Tired Of Trouble
TTITLE10=Viet Nam War (Part 1 and 2)
TTITLE11=Lightnin' Strikes One More Time
TTITLE12=Walkin' Blues
TTITLE13=Talkin' Some Sense
TTITLE14=Lonesome Lightnin'
TTITLE15=My Suggestion
TTITLE16=Uncle Stan, The Hip Record Man
TTITLE17=You're Gonna Miss Me
TTITLE18=The Purple Puppy
EXTD=YEAR: 1990
EXTT0=
EXTT1=
EXTT2=
EXTT3=
EXTT4=
EXTT5=
EXTT6=
EXTT7=
EXTT8=
EXTT9=
EXTT10=
EXTT11=
EXTT12=
EXTT13=
EXTT14=
EXTT15=
EXTT16=
EXTT17=
EXTT18=
PLAYORDER=
